<?xml version="1.0" standalone="no"?>
<!DOCTYPE svg PUBLIC "-//W3C//DTD SVG 20010904//EN"
 "http://www.w3.org/TR/2001/REC-SVG-20010904/DTD/svg10.dtd">
<svg version="1.0" xmlns="http://www.w3.org/2000/svg"
 width="260.000000pt" height="260.000000pt" viewBox="0 0 260.000000 260.000000"
 preserveAspectRatio="xMidYMid meet">
<metadata>
Created by potrace 1.14, written by Peter Selinger 2001-2017
</metadata>
<g transform="translate(0.000000,260.000000) scale(0.100000,-0.100000)"
fill="#000000" stroke="none">
<path d="M209 2448 c-6 -22 -5 -39 3 -45 7 -4 8 -1 3 7 -5 9 -4 11 4 6 14 -9
5 -26 -15 -26 -8 0 -12 -5 -9 -10 4 -6 11 -8 16 -5 12 8 -2 -28 -15 -37 -7 -5
-4 -8 7 -8 14 0 16 -4 7 -19 -7 -14 -7 -22 1 -26 6 -5 4 -12 -8 -22 -10 -8
-13 -12 -7 -9 7 4 13 -6 16 -24 3 -21 1 -27 -7 -20 -14 11 -14 -25 0 -37 4 -5
5 -3 2 3 -3 6 0 11 8 11 13 0 13 -3 2 -16 -7 -9 -12 -29 -11 -46 1 -16 -4 -33
-10 -37 -8 -5 -8 -8 0 -8 14 0 14 -70 0 -70 -6 0 -4 -5 6 -10 17 -11 14 -49
-6 -62 -7 -5 -6 -8 3 -8 11 0 11 -3 0 -17 -12 -15 -12 -16 4 -10 9 3 17 2 17
-3 0 -6 -4 -10 -10 -10 -5 0 -6 -7 -3 -17 4 -11 3 -14 -6 -9 -9 6 -9 3 1 -13
11 -18 11 -23 -2 -31 -8 -5 -10 -10 -5 -10 6 0 16 -10 24 -22 13 -21 13 -22
-2 -10 -10 9 -17 10 -22 2 -3 -5 -1 -10 6 -10 8 0 7 -5 -2 -17 -12 -15 -12
-16 4 -10 9 3 17 2 17 -3 0 -6 -5 -10 -11 -10 -8 0 -8 -4 -1 -13 9 -10 7 -19
-5 -37 -9 -13 -11 -20 -4 -16 8 6 11 -2 9 -26 -1 -19 1 -38 4 -44 4 -5 3 -16
-2 -24 -5 -9 -4 -20 3 -29 10 -12 9 -14 -5 -8 -12 4 -15 2 -11 -8 3 -8 8 -13
12 -11 3 2 6 -7 6 -20 0 -17 -4 -23 -14 -19 -11 4 -11 3 -2 -9 7 -8 10 -20 7
-25 -4 -5 2 -14 11 -20 17 -10 17 -10 1 -11 -11 0 -15 -5 -12 -15 4 -8 10 -12
15 -9 5 3 9 1 9 -4 0 -15 28 -23 36 -10 4 7 3 8 -4 4 -7 -4 -12 -2 -12 3 0 16
16 13 34 -5 9 -8 16 -11 16 -5 0 6 7 8 15 5 8 -4 23 0 32 7 14 12 16 12 8 0
-6 -11 -4 -13 8 -8 9 3 19 1 23 -5 5 -8 10 -7 18 3 16 20 49 21 41 2 -4 -13
-3 -13 9 -4 11 9 15 9 19 -1 3 -10 9 -9 24 4 22 20 33 23 33 7 0 -5 -5 -7 -12
-3 -7 4 -8 3 -4 -5 6 -9 11 -9 22 0 11 9 14 9 14 -1 0 -9 8 -7 26 5 14 9 28
14 32 11 3 -3 -1 -6 -9 -7 -8 0 -1 -5 16 -10 22 -6 33 -4 46 7 13 12 19 12 25
3 5 -8 3 -10 -6 -4 -9 5 -11 4 -6 -4 6 -9 11 -9 22 0 13 11 19 5 14 -16 -1 -5
9 0 22 13 27 24 38 28 38 11 0 -5 -6 -7 -12 -3 -7 4 -10 3 -5 -1 10 -11 68
-14 61 -3 -3 5 -11 5 -17 2 -7 -4 -8 -3 -4 1 10 12 37 15 37 5 0 -4 11 -10 24
-12 19 -4 23 -1 18 11 -4 12 0 11 18 -4 13 -11 20 -14 16 -7 -8 13 19 13 41
-1 9 -6 11 -3 6 10 -6 15 -4 16 8 6 12 -10 18 -10 29 0 8 8 11 8 7 1 -4 -7 0
-14 8 -18 8 -3 14 -2 14 2 -3 19 2 25 11 12 8 -12 13 -13 29 -3 17 11 22 10
30 -5 6 -10 11 -12 11 -4 0 10 5 10 23 1 19 -11 20 -10 10 2 -10 12 -8 15 7
15 10 0 16 -5 13 -10 -4 -5 1 -7 9 -3 9 3 21 0 27 -6 9 -9 11 -7 5 8 -6 16 -4
18 6 8 9 -8 19 -9 32 -2 11 6 18 6 18 0 0 -5 -6 -11 -13 -14 -6 -2 -1 -5 13
-5 14 0 40 -3 59 -5 27 -4 34 -1 39 16 5 19 6 19 19 2 12 -17 13 -18 13 -1 0
9 4 14 10 11 17 -11 90 -11 94 0 3 6 5 6 5 0 1 -11 212 -12 230 -1 6 4 11 4
11 -1 0 -10 131 -10 148 0 6 5 12 5 12 0 0 -12 303 -10 312 2 5 7 8 7 8 0 0
-6 30 -10 70 -10 39 0 70 4 70 10 0 5 5 4 11 -2 32 -32 34 -5 32 520 0 287 -1
527 -2 532 -1 15 -42 16 -60 2 -8 -7 -12 -7 -8 -1 4 7 -14 11 -53 12 -33 1
-62 -3 -66 -9 -3 -6 -11 -6 -17 -1 -19 14 -59 13 -50 -1 5 -9 3 -9 -8 -1 -16
12 -62 17 -55 5 3 -4 -1 -8 -9 -8 -8 0 -12 4 -9 9 8 13 -10 10 -25 -4 -8 -8
-11 -8 -8 -2 4 7 -3 12 -18 12 -16 0 -22 -5 -18 -12 4 -6 -1 -5 -11 3 -15 13
-19 13 -27 0 -6 -10 -9 -10 -9 -1 0 6 -5 12 -11 12 -5 0 -7 -6 -3 -12 6 -10 4
-10 -8 0 -12 9 -18 10 -23 2 -5 -8 -11 -8 -21 1 -11 9 -14 8 -14 -2 0 -9 -3
-10 -8 -4 -11 15 -32 17 -32 3 0 -10 -2 -10 -9 0 -11 17 -21 17 -32 0 -5 -7
-9 -8 -9 -3 0 6 -9 11 -20 12 -11 1 -18 -2 -15 -7 6 -10 -15 -8 -34 4 -8 5
-16 3 -22 -5 -5 -8 -9 -9 -9 -3 0 6 -11 12 -25 12 -16 -1 -22 -5 -18 -12 4 -6
-1 -5 -10 3 -14 11 -20 11 -34 0 -9 -8 -14 -9 -10 -3 9 15 -65 14 -75 0 -5 -8
-8 -8 -8 0 0 6 -16 11 -35 12 -26 1 -34 -2 -28 -11 5 -9 4 -9 -8 0 -15 12 -96
13 -115 0 -15 -9 -64 -5 -58 5 3 4 -2 8 -11 8 -9 0 -14 -4 -11 -8 2 -4 -5 -9
-17 -9 -17 -2 -19 0 -7 7 8 5 10 10 5 10 -6 0 -16 -5 -22 -11 -8 -8 -13 -8
-17 0 -4 6 -12 11 -17 11 -6 0 -8 -4 -5 -8 3 -5 -1 -9 -9 -9 -8 0 -12 4 -9 9
3 4 -2 8 -11 8 -9 0 -13 -4 -10 -10 3 -5 1 -10 -4 -10 -6 0 -11 5 -11 10 0 6
-5 10 -11 10 -5 0 -7 -6 -3 -12 6 -10 4 -10 -7 0 -16 14 -33 16 -24 2 3 -5 1
-10 -4 -10 -6 0 -11 5 -11 10 0 6 -5 10 -11 10 -5 0 -7 -6 -3 -12 5 -8 0 -7
-11 2 -11 9 -16 10 -11 3 4 -7 2 -13 -3 -13 -6 0 -11 5 -11 10 0 6 -5 10 -11
10 -5 0 -7 -4 -4 -10 3 -5 2 -10 -4 -10 -5 0 -11 6 -14 13 -3 9 -9 9 -27 -1
-12 -8 -20 -9 -16 -4 8 13 -26 11 -43 -2 -11 -8 -13 -8 -7 2 4 6 2 12 -3 12
-6 0 -11 -6 -11 -12 0 -9 -4 -8 -10 2 -9 13 -10 13 -10 0 0 -12 -2 -13 -9 -1
-7 11 -9 11 -14 0 -4 -10 -6 -10 -6 -1 -1 6 -5 12 -11 12 -5 0 -7 -8 -4 -17 5
-15 4 -15 -6 1 -10 15 -14 16 -21 5 -6 -10 -9 -11 -9 -1 0 6 -5 12 -11 12 -5
0 -8 -4 -5 -8 3 -5 -1 -9 -9 -9 -8 0 -12 4 -9 8 7 12 -39 7 -55 -5 -11 -8 -13
-8 -7 2 4 6 2 12 -3 12 -6 0 -11 -4 -11 -10 0 -5 -5 -10 -11 -10 -5 0 -7 5 -4
10 9 14 -8 12 -24 -2 -11 -10 -13 -10 -7 0 4 7 1 12 -8 12 -9 0 -16 -6 -16
-12 0 -9 -4 -8 -10 2 -6 10 -10 11 -10 3 0 -7 -5 -13 -11 -13 -5 0 -7 5 -4 10
3 6 -1 10 -10 10 -9 0 -13 -4 -10 -10 3 -5 1 -10 -4 -10 -6 0 -11 5 -11 10 0
6 -7 10 -16 10 -8 0 -13 -4 -10 -8 3 -5 -1 -9 -9 -9 -8 0 -12 4 -9 9 3 4 -2 8
-11 8 -9 0 -13 -5 -10 -11 4 -6 -2 -5 -13 2 -17 11 -24 10 -38 -2 -11 -9 -15
-9 -10 -1 4 7 1 12 -9 12 -9 0 -13 -4 -10 -10 3 -5 1 -10 -4 -10 -6 0 -11 5
-11 10 0 6 -4 10 -10 10 -5 0 -7 -6 -4 -14 3 -8 1 -17 -5 -21 -6 -3 -9 0 -5 8
3 8 1 18 -5 22 -6 3 -11 1 -11 -4 0 -6 -5 -11 -11 -11 -5 0 -8 4 -5 8 2 4 -4
8 -14 9 -11 1 -22 -2 -25 -8 -4 -5 -11 -9 -16 -9 -6 0 -7 5 -4 10 3 6 4 10 1
10 -3 0 -6 -1 -7 -2z m198 -14 c-3 -3 -12 -4 -19 -1 -8 3 -5 6 6 6 11 1 17 -2
13 -5z m278 -4 c3 -6 -1 -7 -9 -4 -18 7 -21 14 -7 14 6 0 13 -4 16 -10z m630
0 c-3 -5 0 -10 7 -10 8 0 6 -5 -5 -11 -9 -6 -15 -14 -12 -19 3 -5 0 -12 -6
-16 -8 -5 -9 -3 -4 6 6 9 4 12 -7 8 -8 -4 -15 -1 -15 7 0 8 7 11 16 7 9 -3 13
-2 9 3 -4 4 -3 14 3 22 13 15 23 18 14 3z m-945 -36 c0 -13 2 -13 16 1 12 12
19 13 30 4 13 -11 18 -6 15 14 -1 5 3 5 9 2 6 -4 9 -14 5 -24 -5 -13 -4 -13 6
-4 10 10 16 10 28 0 11 -9 13 -9 8 0 -4 6 -3 14 3 18 5 3 10 0 10 -7 0 -9 3
-9 10 2 9 13 10 13 10 0 0 -13 1 -13 10 0 6 10 10 11 10 3 0 -7 4 -13 10 -13
5 0 9 4 7 9 -1 5 1 9 6 10 4 1 7 -2 6 -5 -2 -17 28 -22 48 -8 13 8 23 10 23 4
0 -5 5 -10 11 -10 5 0 8 4 4 9 -3 5 0 13 6 17 7 4 9 3 5 -4 -3 -6 -2 -13 3
-16 5 -4 13 -2 16 4 5 8 12 7 23 -2 12 -10 14 -10 8 0 -4 6 -2 12 3 12 6 0 11
-4 11 -10 0 -5 4 -10 10 -10 5 0 7 8 4 18 -5 14 -4 14 6 -2 10 -15 14 -16 21
-5 6 10 9 11 9 2 0 -7 5 -13 11 -13 5 0 7 5 3 12 -5 7 -3 8 7 2 23 -14 49 -15
45 -1 -1 6 -1 9 1 4 3 -4 10 -4 15 -1 7 4 8 2 4 -4 -10 -16 7 -15 23 1 8 6 11
7 8 1 -4 -7 6 -11 28 -11 19 0 32 4 29 9 -3 4 0 8 5 8 6 0 11 -4 11 -9 0 -5 7
-12 16 -15 13 -5 14 -3 6 7 -9 10 -4 13 24 13 27 0 33 -4 29 -16 -3 -9 1 -8
10 4 11 14 15 16 15 5 0 -12 2 -12 10 1 9 13 10 13 10 0 0 -13 1 -13 10 0 9
13 10 13 10 0 0 -13 1 -13 10 0 9 13 10 13 10 0 0 -13 1 -13 10 0 8 13 10 12
10 -4 0 -20 0 -20 16 0 8 10 12 13 8 5 -5 -11 -3 -13 9 -8 9 3 19 2 22 -4 4
-5 10 -7 15 -4 4 3 14 -3 21 -12 10 -12 10 -14 2 -9 -9 5 -13 0 -13 -14 0 -12
4 -18 10 -15 6 4 6 -4 0 -21 -8 -21 -8 -29 2 -36 10 -5 8 -8 -5 -8 -12 0 -16
-4 -10 -12 4 -7 6 -21 5 -30 -2 -10 2 -18 8 -18 6 0 8 -5 5 -10 -4 -6 -11 -8
-16 -5 -5 3 -6 -1 -3 -9 3 -9 11 -16 18 -16 6 0 5 -4 -3 -9 -8 -5 -11 -16 -8
-25 3 -8 2 -18 -4 -21 -5 -4 -6 -12 -2 -18 10 -16 13 -37 5 -37 -4 0 -7 -11
-7 -24 0 -15 5 -22 13 -19 8 4 10 0 6 -11 -3 -9 -9 -14 -13 -12 -11 7 -5 -82
7 -97 12 -14 6 -51 -7 -43 -4 3 -6 -10 -4 -27 4 -32 4 -45 2 -69 -1 -7 2 -22
7 -32 5 -14 4 -17 -4 -12 -8 5 -10 2 -6 -8 3 -9 11 -13 18 -9 6 4 5 -1 -3 -10
-11 -14 -11 -20 0 -34 8 -9 9 -14 3 -10 -7 4 -14 0 -18 -8 -3 -8 -1 -17 4 -20
6 -4 7 -13 1 -23 -11 -22 -3 -44 12 -35 7 4 6 -1 -2 -10 -16 -20 -20 -64 -9
-88 9 -20 -16 -47 -27 -29 -3 6 -11 7 -17 4 -21 -13 -71 -14 -86 -1 -13 10
-14 9 -7 -2 6 -11 4 -13 -8 -8 -10 3 -17 2 -17 -2 0 -5 -9 -7 -20 -4 -11 3
-20 10 -20 17 0 6 -5 4 -10 -4 -5 -8 -10 -11 -10 -6 0 5 -8 2 -17 -5 -15 -12
-16 -12 -10 4 4 11 3 16 -3 12 -5 -3 -19 -8 -30 -11 -11 -2 -29 -6 -41 -9 -14
-3 -19 0 -16 8 3 7 -3 13 -13 13 -10 0 -17 -4 -14 -7 2 -4 0 -10 -5 -13 -5 -3
-12 2 -15 11 -5 12 -9 14 -18 5 -7 -7 -23 -12 -37 -12 -21 0 -23 2 -11 10 8 5
10 10 4 10 -6 0 -14 -3 -18 -7 -13 -13 -56 -14 -56 -1 0 9 -3 9 -10 -2 -6 -10
-10 -11 -10 -2 0 6 -5 12 -11 12 -5 0 -8 -4 -4 -9 3 -5 1 -12 -5 -16 -5 -3
-10 -1 -10 5 0 7 -6 10 -14 7 -7 -3 -19 0 -26 6 -10 9 -11 9 -6 0 5 -8 1 -13
-9 -13 -9 0 -13 5 -10 11 4 6 -3 5 -15 -3 -19 -11 -23 -11 -28 1 -4 11 -6 11
-13 0 -6 -10 -9 -11 -9 -1 0 6 -5 12 -11 12 -5 0 -8 -4 -4 -9 3 -5 1 -12 -5
-16 -5 -3 -10 -1 -10 5 0 7 -6 10 -14 7 -7 -3 -19 0 -26 6 -10 9 -11 9 -6 0 9
-17 -16 -17 -33 0 -11 10 -12 9 -6 -2 5 -9 3 -12 -6 -9 -8 3 -22 1 -31 -3 -10
-6 -19 -5 -23 1 -3 5 -12 7 -20 3 -9 -3 -23 1 -32 8 -12 10 -15 10 -9 1 5 -8
1 -11 -11 -9 -31 5 -46 18 -34 30 15 15 14 50 -1 41 -6 -4 -8 -3 -4 4 3 5 3
12 -1 15 -5 2 -2 2 5 1 16 -4 16 8 0 25 -11 11 -10 12 1 6 9 -5 12 -3 9 6 -3
8 -11 13 -17 11 -7 -1 -10 2 -6 8 3 6 11 8 16 5 9 -6 14 10 9 30 -1 6 -3 15
-4 20 -1 6 -6 16 -10 24 -6 9 -5 12 0 8 6 -3 15 2 21 12 9 14 8 18 -3 18 -7 0
-10 -5 -7 -11 3 -6 2 -8 -2 -3 -12 11 -14 47 -2 40 6 -4 8 0 4 9 -3 9 0 21 6
28 9 10 9 11 0 6 -16 -9 -16 -1 -3 24 7 13 7 21 0 25 -8 5 -7 12 2 23 10 12
10 14 1 8 -7 -4 -13 -3 -13 1 0 5 6 15 13 22 10 11 9 13 -6 8 -13 -5 -16 -3
-10 6 11 18 15 49 5 43 -5 -3 -9 1 -9 9 0 8 3 14 6 13 21 -2 22 4 5 18 -10 8
-14 13 -8 10 7 -3 14 1 18 9 3 10 -1 15 -12 15 -10 0 -13 3 -7 8 13 8 13 22 1
41 -7 10 -6 12 4 6 8 -5 11 -3 8 6 -3 8 -1 25 4 38 7 19 6 22 -8 17 -14 -5
-15 -4 -4 9 7 8 10 15 6 15 -3 0 -1 12 4 26 9 22 8 25 -6 20 -15 -6 -15 -4 0
18 10 15 12 27 6 31 -6 3 -10 1 -10 -6 0 -7 -3 -9 -6 -6 -4 4 -2 13 5 20 9 11
8 17 -4 27 -17 14 -20 30 -4 30 5 0 8 -4 5 -9 -3 -5 1 -12 9 -15 12 -4 13 -1
7 12 -15 31 -7 113 11 124 11 6 17 5 17 -1 0 -10 25 -9 36 2 4 4 14 1 22 -6
13 -10 15 -9 9 6 -4 11 -3 16 3 12 6 -3 10 -13 10 -21z m560 16 c0 -5 -2 -10
-4 -10 -3 0 -8 5 -11 10 -3 6 -1 10 4 10 6 0 11 -4 11 -10z m-310 -4 c0 -2 -7
-6 -15 -10 -8 -3 -15 -1 -15 4 0 6 7 10 15 10 8 0 15 -2 15 -4z m887 -11 c24
-1 43 2 43 7 0 5 8 5 18 -1 11 -6 24 -6 32 -1 9 5 20 4 28 -2 10 -9 16 -8 23
3 7 12 9 12 9 0 0 -11 3 -12 12 -3 7 7 17 8 29 2 12 -7 20 -6 24 0 4 6 12 7
18 3 18 -11 47 -11 47 0 0 5 7 4 15 -3 12 -10 15 -10 15 1 0 10 2 11 8 2 5 -8
13 -9 22 -3 8 5 21 5 32 -1 13 -7 18 -6 18 3 0 9 3 9 8 2 8 -12 71 -12 90 0 7
4 12 3 12 -2 0 -12 93 -10 102 3 5 6 11 6 19 -2 9 -9 16 -10 26 -2 8 8 13 8
13 1 0 -11 72 -8 91 4 8 4 9 3 5 -4 -5 -8 2 -11 23 -8 44 5 56 -7 52 -54 -1
-23 3 -48 11 -57 9 -12 9 -15 1 -9 -8 4 -13 2 -13 -6 0 -8 6 -20 13 -27 6 -8
7 -11 1 -8 -13 7 -13 -571 0 -592 6 -10 6 -12 -2 -7 -8 5 -11 -22 -11 -94 0
-55 -2 -104 -5 -109 -9 -14 -597 -13 -615 2 -10 8 -13 8 -8 0 11 -18 -334 -15
-351 3 -10 11 -10 14 0 14 10 0 10 2 -1 9 -7 5 -9 11 -4 14 14 9 9 42 -8 63
-12 15 -12 16 0 9 11 -6 13 -3 9 13 -4 13 -1 22 5 23 8 0 8 2 -1 6 -6 2 -9 9
-6 14 11 18 11 59 1 59 -7 0 -7 4 1 12 9 9 7 15 -6 25 -11 9 -12 12 -3 11 7
-2 15 5 16 15 2 9 0 17 -5 17 -9 0 -8 19 3 37 4 6 1 13 -5 16 -10 3 -10 7 1
20 7 10 9 17 4 17 -5 0 -10 7 -10 15 0 8 4 15 8 15 5 0 5 11 0 23 -5 13 -5 30
-1 38 6 9 3 20 -8 33 -9 11 -12 16 -5 13 6 -4 14 -3 18 3 3 5 1 10 -6 10 -9 0
-9 3 0 14 8 10 9 16 1 21 -6 3 -8 11 -4 16 9 15 11 109 2 109 -4 0 -4 10 0 23
7 20 8 42 2 60 -6 19 -5 33 5 39 5 4 1 8 -10 8 -17 0 -17 2 -5 10 8 5 11 10 5
10 -5 0 -3 5 5 10 11 7 11 10 2 10 -10 0 -10 5 -1 23 15 26 15 27 -2 38 -21
13 -3 22 45 23 25 0 42 4 39 10 -4 5 -1 6 7 1 8 -5 33 -9 57 -10z m-1260 -47
c2 -18 0 -20 -7 -8 -12 18 -13 30 -2 30 4 0 9 -10 9 -22z m1068 12 c-3 -5 -12
-10 -18 -10 -7 0 -6 4 3 10 19 12 23 12 15 0z m-20 -28 c-3 -3 -11 0 -18 7 -9
10 -8 11 6 5 10 -3 15 -9 12 -12z m0 -30 c-3 -3 -11 0 -18 7 -9 10 -8 11 6 5
10 -3 15 -9 12 -12z m33 -7 c-3 -3 -9 2 -12 12 -6 14 -5 15 5 6 7 -7 10 -15 7
-18z m-20 -35 c0 -16 -3 -30 -8 -30 -5 0 -7 7 -4 15 5 11 1 14 -12 9 -18 -5
-18 -5 -1 6 9 6 15 15 12 21 -4 5 -2 9 3 9 5 0 9 -13 10 -30z m-18 -55 c-10
-12 -10 -15 0 -15 8 0 11 -3 7 -6 -3 -3 -11 -3 -17 1 -8 5 -8 11 1 21 6 8 14
14 16 14 3 0 0 -7 -7 -15z m31 -52 c13 -17 13 -17 -6 -3 -11 8 -22 16 -24 17
-2 2 0 3 6 3 6 0 17 -8 24 -17z m-16 -35 c-3 -11 -7 -23 -11 -27 -4 -3 -4 2 0
13 5 14 3 17 -11 12 -17 -6 -17 -5 -1 7 10 8 14 18 10 22 -4 5 -2 5 5 1 6 -3
10 -16 8 -28z m20 -66 c-3 -3 -11 0 -18 7 -9 10 -8 11 6 5 10 -3 15 -9 12 -12z
m-75 -292 c0 -5 -5 -10 -11 -10 -5 0 -7 5 -4 10 3 6 8 10 11 10 2 0 4 -4 4
-10z m0 -240 c0 -5 -5 -10 -11 -10 -5 0 -7 5 -4 10 3 6 8 10 11 10 2 0 4 -4 4
-10z m-600 -140 c0 -5 -4 -10 -10 -10 -5 0 -10 5 -10 10 0 6 5 10 10 10 6 0
10 -4 10 -10z m660 -3 c0 -8 3 -8 9 1 7 11 9 11 14 -1 5 -13 -6 -14 -55 -8
-17 2 -7 17 12 18 11 1 20 -4 20 -10z"/>
<path d="M486 2336 c3 -7 -2 -13 -10 -13 -8 0 -13 5 -9 10 3 5 -4 4 -15 -2
-12 -6 -23 -7 -26 -2 -7 10 -20 9 -56 -7 -14 -6 -20 -11 -14 -11 17 -1 25 -29
12 -37 -7 -5 -8 -2 -3 6 5 9 4 11 -4 6 -9 -6 -9 -11 0 -22 6 -8 9 -17 6 -21
-4 -3 -2 -14 3 -24 7 -13 6 -22 -6 -33 -14 -15 -14 -16 3 -16 17 -1 17 -1 0
-11 -14 -8 -16 -14 -7 -25 13 -15 20 -75 9 -68 -4 2 -10 0 -14 -6 -3 -5 -1
-10 6 -10 8 0 7 -5 -2 -17 -8 -9 -9 -14 -3 -10 7 4 14 0 18 -8 3 -8 0 -17 -6
-21 -7 -5 -8 -2 -3 6 5 9 4 11 -3 6 -9 -5 -8 -12 1 -26 9 -16 9 -24 -1 -41 -8
-12 -9 -18 -3 -14 10 5 15 -6 12 -27 0 -3 -2 -27 -5 -51 -2 -25 -7 -51 -12
-58 -5 -9 -2 -11 9 -6 12 4 14 2 10 -11 -4 -9 -11 -20 -17 -24 -8 -5 -7 -8 1
-8 14 0 13 -127 -1 -149 -7 -11 -5 -13 7 -8 12 4 15 1 11 -16 -8 -33 -11 -77
-5 -72 2 3 11 -1 19 -8 13 -10 14 -9 8 2 -6 9 -5 12 5 9 8 -3 13 -11 11 -17
-1 -7 2 -10 8 -6 6 3 8 10 6 14 -6 9 96 7 112 -3 7 -4 12 -3 12 2 0 14 41 7
51 -9 7 -11 9 -10 9 5 0 14 3 16 13 7 8 -6 17 -8 20 -5 9 9 67 13 62 4 -3 -4
2 -10 10 -13 9 -4 12 -1 9 7 -6 17 69 14 90 -3 12 -10 14 -8 9 11 -5 23 -5 23
12 3 11 -14 15 -15 12 -4 -6 17 33 21 45 4 5 -6 8 -3 8 7 0 11 5 15 15 12 8
-4 15 -1 15 5 0 6 5 11 11 11 5 0 7 -4 4 -10 -3 -6 1 -7 9 -4 9 3 13 11 9 17
-4 6 0 8 11 4 10 -4 15 -3 11 3 -3 6 1 10 10 10 9 0 14 4 11 8 -2 4 9 14 24
21 16 7 28 18 27 24 -1 7 4 11 10 10 7 -2 12 0 11 5 -1 4 4 17 11 30 7 13 10
30 7 38 -3 8 0 13 7 11 7 -1 11 6 9 17 -2 13 1 16 10 10 11 -6 11 -5 0 8 -10
13 -10 17 0 21 10 4 10 6 -1 6 -11 1 -11 4 -1 16 10 12 9 15 -6 15 -11 0 -15
4 -9 8 17 12 14 41 -4 34 -13 -5 -14 -3 -4 9 9 11 8 18 -2 32 -10 14 -14 15
-18 5 -4 -9 -6 -8 -6 4 -1 9 2 18 7 21 4 2 2 2 -5 1 -6 -2 -17 5 -25 14 -9 11
-9 14 -1 8 9 -5 11 -2 7 8 -3 9 -11 13 -17 9 -6 -4 -1 8 12 25 12 18 19 36 16
42 -3 5 -2 10 2 10 5 0 14 9 21 21 8 12 9 18 4 15 -6 -3 -12 1 -16 9 -3 8 0
17 6 21 7 5 8 2 3 -6 -5 -8 -4 -11 3 -6 6 4 9 13 6 21 -4 8 -9 13 -13 10 -4
-2 -8 2 -8 10 0 8 4 12 9 9 15 -9 8 8 -10 24 -10 10 -12 13 -6 9 9 -6 11 -2 7
12 -3 12 -9 19 -13 16 -4 -3 -11 2 -14 11 -4 10 -2 13 7 9 6 -4 3 0 -7 9 -10
8 -24 12 -30 9 -6 -4 -4 2 4 12 9 11 10 16 3 11 -8 -4 -13 -1 -13 8 0 9 -9 16
-20 16 -11 0 -20 5 -20 11 0 5 -4 7 -10 4 -5 -3 -10 1 -10 10 0 12 -4 14 -19
6 -14 -8 -22 -7 -32 6 -12 14 -12 16 0 8 9 -5 12 -4 7 3 -4 6 -13 9 -21 6 -8
-3 -20 -2 -27 3 -15 9 -98 12 -93 3 2 -4 -14 -6 -35 -6 -21 0 -36 4 -34 8 3 4
-2 8 -11 8 -9 0 -14 -3 -11 -8 2 -4 -20 -7 -49 -8 -30 0 -51 4 -49 8 3 4 1 8
-5 8 -5 0 -13 -4 -16 -10 -3 -5 -12 -10 -18 -10 -7 0 -6 4 3 10 13 9 13 10 0
10 -9 0 -22 -6 -29 -12 -9 -8 -11 -8 -8 -2 4 7 0 14 -8 17 -9 4 -12 1 -9 -7z"/>
<path d="M716 2342 c-3 -4 4 -9 15 -9 23 -2 25 3 4 10 -8 4 -16 3 -19 -1z"/>
<path d="M666 1478 c3 -5 10 -6 15 -3 13 9 11 12 -6 12 -8 0 -12 -4 -9 -9z"/>
<path d="M766 1478 c3 -5 10 -6 15 -3 13 9 11 12 -6 12 -8 0 -12 -4 -9 -9z"/>
<path d="M255 1440 c3 -5 8 -10 11 -10 2 0 4 5 4 10 0 6 -5 10 -11 10 -5 0 -7
-4 -4 -10z"/>
<path d="M1595 2329 c-4 -5 -17 -9 -31 -9 -13 0 -24 -4 -24 -10 0 -5 -6 -10
-14 -10 -8 0 -17 -7 -20 -16 -3 -8 -10 -12 -16 -9 -5 3 -10 -1 -10 -10 0 -10
-5 -13 -12 -9 -6 4 -8 3 -5 -3 4 -6 0 -16 -8 -23 -8 -7 -15 -23 -15 -37 0 -13
-4 -22 -9 -18 -12 7 -9 -75 3 -94 7 -10 5 -12 -5 -6 -11 6 -12 5 -1 -6 6 -7
12 -21 12 -32 0 -10 5 -15 10 -12 6 3 10 0 10 -7 0 -19 59 -65 109 -84 43 -17
44 -18 21 -24 -14 -4 -42 -6 -63 -4 -20 1 -35 -1 -33 -5 3 -4 -1 -8 -9 -8 -8
0 -12 4 -9 9 3 4 0 8 -5 8 -6 0 -11 -5 -11 -11 0 -5 -4 -8 -9 -5 -11 7 -9 -13
3 -33 6 -9 5 -12 -2 -7 -7 4 -10 -47 -10 -173 1 -99 5 -178 10 -175 4 3 8 -3
9 -13 0 -10 3 -13 5 -6 4 8 14 9 35 3 16 -5 29 -5 29 0 0 5 13 5 30 0 17 -5
30 -5 30 0 0 5 13 5 30 0 17 -5 30 -5 30 0 0 5 13 5 30 0 17 -5 30 -5 30 -2 0
4 17 6 38 5 76 -6 242 -8 242 -3 0 7 77 3 89 -5 6 -3 11 -2 11 4 0 5 9 8 20 6
11 -2 25 2 32 8 7 7 20 12 28 12 18 0 79 57 73 68 -2 4 1 7 6 7 6 0 11 6 11
13 0 6 7 24 14 40 8 15 12 27 8 27 -4 0 -8 21 -9 48 -3 71 -4 72 -43 111 -51
49 -67 61 -85 61 -8 0 -15 4 -15 8 0 8 30 12 100 15 l35 2 1 203 c0 112 -3
202 -8 202 -5 0 -6 5 -2 11 4 7 -1 7 -16 -1 -13 -7 -20 -8 -16 -2 4 6 -2 10
-14 9 -11 -1 -20 -5 -20 -10 0 -4 -6 -5 -12 0 -18 11 -50 15 -44 5 2 -4 -4 -8
-14 -8 -10 0 -16 4 -14 8 7 12 -40 5 -48 -7 -5 -6 -8 -5 -8 4 0 11 -3 11 -17
0 -11 -10 -14 -10 -9 -2 9 16 -35 13 -46 -2 -5 -7 -8 -6 -8 0 0 6 -9 11 -20
12 -11 1 -18 -2 -16 -6 3 -4 -1 -8 -9 -8 -8 0 -12 3 -10 7 2 3 -11 6 -30 6
-21 0 -31 -4 -27 -10 3 -6 -2 -5 -11 3 -12 9 -17 10 -17 2 0 -7 -5 -9 -12 -5
-7 5 -30 9 -51 9 -21 1 -32 -2 -26 -6 7 -4 1 -6 -14 -6 -14 1 -23 5 -20 10 2
4 0 7 -6 7 -5 0 -12 -6 -14 -12 -4 -10 -6 -10 -6 0 -1 6 -6 12 -12 12 -5 0 -7
-5 -3 -12 4 -6 3 -8 -3 -5 -18 11 -63 16 -68 6z"/>
<path d="M1268 2443 c7 -3 16 -2 19 1 4 3 -2 6 -13 5 -11 0 -14 -3 -6 -6z"/>
<path d="M1297 1333 c-4 -3 -7 -13 -7 -21 0 -18 13 -7 16 13 2 17 1 18 -9 8z"/>
<path d="M658 1313 c-3 -13 -12 -23 -20 -22 -10 0 -10 2 0 6 28 11 9 18 -43
15 -38 -3 -53 -7 -48 -15 5 -9 3 -9 -8 -1 -17 14 -82 16 -74 3 4 -5 1 -9 -4
-9 -6 0 -11 4 -11 8 0 5 -7 9 -15 9 -8 0 -12 -4 -9 -9 3 -4 0 -8 -5 -8 -6 0
-11 5 -11 10 0 12 -38 9 -59 -4 -11 -7 -13 -5 -9 5 5 12 -2 14 -28 11 -19 -2
-32 -7 -29 -11 2 -4 -2 -8 -10 -8 -8 0 -12 4 -9 9 3 4 -13 8 -35 8 -22 0 -43
-4 -46 -10 -3 -5 0 -7 8 -4 8 3 14 -1 14 -10 0 -8 -4 -13 -9 -10 -4 3 -8 1 -8
-5 0 -5 6 -12 13 -14 9 -4 8 -6 -2 -6 -11 -1 -11 -4 0 -18 12 -15 12 -16 -1
-8 -13 7 -13 6 -2 -7 9 -11 10 -18 2 -23 -6 -3 -7 -12 -3 -18 11 -18 12 -37 2
-37 -6 0 -6 -7 -1 -17 10 -22 9 -183 -1 -200 -5 -7 -4 -13 0 -13 11 0 10 -130
0 -148 -5 -6 -4 -12 1 -12 4 0 8 -20 8 -45 -1 -25 -5 -45 -11 -45 -7 0 -7 -3
0 -8 14 -10 14 -72 1 -72 -8 0 -8 -3 0 -8 13 -9 12 -85 -1 -94 -6 -5 -6 -8 1
-8 14 0 13 -122 -1 -132 -6 -5 -6 -8 1 -8 13 0 12 -38 0 -59 -6 -10 -5 -12 2
-7 8 4 12 0 12 -11 0 -12 8 -19 20 -20 13 -1 18 2 13 10 -5 9 -3 9 8 1 9 -7
170 -10 505 -10 454 1 492 3 515 19 13 10 19 16 13 13 -7 -4 -11 4 -11 19 0
14 5 25 11 25 6 0 5 4 -3 9 -13 8 -13 12 0 27 9 11 9 15 1 10 -14 -8 -12 19 2
43 6 10 5 12 -2 7 -16 -10 -15 7 1 23 10 11 10 13 0 7 -17 -9 -17 6 0 23 10
11 9 12 -1 6 -12 -6 -12 -3 -2 15 7 12 8 20 2 16 -12 -7 -10 63 2 83 7 10 5
12 -5 6 -12 -8 -12 -6 0 8 11 14 11 17 0 17 -11 0 -11 2 1 10 13 9 13 10 0 10
-13 0 -13 1 0 10 13 9 13 10 0 10 -13 0 -13 1 0 10 12 8 12 10 1 10 -11 0 -11
3 0 17 8 9 9 14 4 11 -7 -4 -11 13 -10 47 0 29 3 51 8 48 4 -2 7 0 7 6 0 5 -5
13 -10 16 -11 7 5 35 19 35 10 0 8 -52 -3 -69 -7 -10 -6 -12 3 -6 16 9 12 -46
-4 -57 -7 -5 -6 -8 1 -8 7 0 11 -73 12 -232 1 -169 4 -233 13 -239 7 -4 27 -6
46 -4 19 1 33 -2 33 -9 0 -7 3 -8 8 -1 9 13 661 14 681 1 9 -6 12 -5 8 1 -4 6
4 11 18 11 15 0 22 -5 18 -12 -3 -6 3 -3 14 7 12 10 24 14 27 9 3 -5 34 -8 68
-7 35 1 69 -3 77 -9 11 -8 13 -8 8 0 -4 7 3 11 19 11 34 0 37 6 37 63 0 30 4
47 10 43 6 -4 7 -1 1 8 -13 22 -16 81 -2 73 7 -5 8 -3 2 7 -5 8 -10 25 -12 37
-2 17 1 22 10 16 10 -6 11 -5 1 8 -7 8 -10 18 -6 21 3 4 0 13 -7 22 -7 8 -8
15 -3 15 6 0 9 25 7 60 -2 40 1 58 8 54 6 -4 7 0 1 12 -5 11 -8 37 -7 59 0 22
-4 46 -10 54 -7 10 -7 13 0 8 7 -4 10 33 10 118 0 69 -4 121 -9 118 -5 -3 -5
3 1 13 5 11 8 47 6 82 -2 47 0 61 9 55 9 -5 9 -3 2 8 -6 8 -10 32 -10 54 1 22
-3 45 -9 51 -12 11 -52 11 -94 1 -12 -3 -20 -2 -17 3 3 5 -4 8 -15 7 -11 -1
-20 -6 -20 -11 0 -6 -5 -5 -12 2 -15 15 -32 16 -22 1 5 -8 1 -8 -13 0 -14 7
-24 7 -33 -2 -10 -9 -11 -9 -6 1 9 15 -6 16 -22 0 -7 -7 -12 -8 -12 -2 0 9
-85 12 -115 4 -5 -1 -12 -1 -15 0 -3 1 -67 3 -142 5 -92 1 -135 -1 -131 -8 4
-6 1 -7 -8 -1 -21 13 -62 17 -54 4 3 -5 1 -10 -4 -10 -6 0 -11 4 -11 8 0 4
-11 9 -26 10 -17 1 -23 -2 -18 -10 5 -7 3 -8 -7 -2 -21 13 -42 14 -56 2 -7 -6
-13 -6 -13 -2 0 12 -91 14 -112 3 -10 -6 -19 -5 -23 1 -9 15 -56 12 -74 -4
-11 -9 -22 -11 -36 -5 -18 9 -18 9 3 5 12 -2 20 0 16 5 -9 15 -66 11 -58 -3 6
-10 4 -10 -7 0 -16 15 -39 16 -39 1 0 -5 4 -8 9 -4 5 3 12 1 15 -4 4 -5 -2 -8
-11 -7 -9 2 -19 8 -21 14 -2 7 -11 12 -20 12 -15 0 -15 -2 -2 -10 9 -6 10 -10
3 -10 -6 0 -14 4 -18 9 -6 11 -126 8 -145 -4 -9 -5 -11 -4 -6 3 11 18 -39 15
-54 -3 -6 -8 -9 -18 -6 -23 3 -5 -1 -9 -8 -9 -8 0 -11 8 -8 19 2 10 8 18 13
18 5 0 9 8 9 18 0 11 -3 13 -8 6 -9 -15 -132 -23 -132 -9 0 6 -4 4 -9 -4 -13
-20 -51 -25 -51 -7 0 11 -7 13 -29 6 -24 -7 -31 -5 -33 8 -3 13 -5 12 -10 -5z
m-328 -17 c0 -2 -7 -7 -16 -10 -8 -3 -12 -2 -9 4 6 10 25 14 25 6z m201 -13
c13 -16 12 -17 -3 -4 -10 7 -18 15 -18 17 0 8 8 3 21 -13z m78 4 c8 -10 7 -14
-2 -14 -8 0 -14 6 -14 14 0 7 1 13 2 13 2 0 8 -6 14 -13z m358 6 c-4 -3 -1
-13 6 -22 11 -14 10 -14 -5 -2 -21 15 -23 31 -6 31 6 0 8 -3 5 -7z m59 -1 c-2
-4 1 -14 7 -22 14 -18 138 -23 149 -6 5 8 8 7 8 -1 0 -7 10 -13 22 -13 12 0
18 -3 15 -6 -3 -4 -2 -15 4 -25 5 -11 6 -19 1 -19 -4 0 -5 -25 -2 -55 3 -30 3
-55 0 -55 -4 0 -4 -22 0 -50 4 -27 4 -50 1 -50 -3 0 -4 -54 -1 -120 3 -66 1
-120 -3 -120 -4 0 -3 -9 3 -20 6 -11 7 -20 2 -20 -4 0 -5 -27 -2 -60 3 -33 3
-60 -1 -60 -3 0 -3 -18 1 -40 4 -22 3 -40 -2 -40 -5 0 -4 -9 2 -20 6 -11 7
-20 2 -20 -5 0 -6 -22 -2 -50 4 -27 3 -50 -1 -50 -4 0 -5 -9 -2 -20 3 -11 2
-31 -1 -44 l-6 -25 -480 0 c-437 1 -481 2 -488 17 -5 10 -8 226 -7 482 1 357
4 464 13 462 16 -3 16 15 0 21 -7 3 -3 4 9 4 12 -1 19 -5 17 -9 -3 -4 0 -8 5
-8 6 0 11 5 11 11 0 6 7 3 16 -5 19 -20 31 -21 15 -2 -10 12 -8 13 10 9 15 -4
20 -2 15 5 -3 6 -2 13 3 16 5 4 8 -6 6 -21 -3 -25 -2 -26 11 -8 8 10 14 13 14
6 0 -7 5 -9 13 -4 17 10 38 13 32 3 -6 -10 56 -6 74 4 9 6 12 5 7 -2 -4 -7 1
-10 14 -9 11 1 20 5 20 9 0 4 5 8 11 8 5 0 8 -4 5 -9 -8 -12 57 -8 67 4 6 6
10 6 14 -2 8 -21 22 -14 18 8 -3 12 -1 18 3 15 4 -4 7 -13 7 -19 0 -5 10 -11
22 -12 12 -1 20 2 17 7 -3 4 0 8 5 8 6 0 11 -4 11 -9 0 -11 49 -9 68 2 6 5 12
4 12 -2 0 -6 5 -11 11 -11 5 0 8 4 4 9 -3 5 -1 13 5 16 6 4 9 1 8 -6 -2 -7 7
-14 19 -15 12 -1 20 3 17 8 -3 4 -10 5 -16 2 -7 -4 -8 -2 -4 4 7 12 36 5 36
-9 0 -10 28 -8 45 3 6 4 17 3 25 -2 9 -5 19 -5 26 1 8 7 14 6 19 -1 8 -13 25
-13 25 1 0 5 -4 8 -9 5 -5 -4 -8 2 -6 11 5 24 4 23 11 23 3 0 3 -3 0 -8z m57
-9 c-3 -7 -6 -13 -8 -13 -2 0 -5 6 -8 13 -3 8 1 14 8 14 7 0 11 -6 8 -14z m34
6 c-9 -6 -14 -15 -11 -21 4 -7 2 -8 -5 -4 -14 9 3 36 23 36 6 0 3 -5 -7 -11z
m-632 -9 c-3 -5 -12 -10 -18 -10 -7 0 -6 4 3 10 19 12 23 12 15 0z m279 -8 c3
-5 -1 -9 -9 -9 -8 0 -12 4 -9 9 3 4 7 8 9 8 2 0 6 -4 9 -8z m532 -11 c-13 -14
-14 -21 -5 -27 8 -4 10 -3 5 4 -4 7 -1 12 9 12 9 0 14 -4 11 -9 -3 -5 -7 -83
-8 -174 -1 -91 -6 -163 -10 -161 -4 3 -8 0 -8 -5 0 -6 5 -11 10 -11 6 0 10 -7
10 -15 0 -8 -2 -15 -4 -15 -2 0 -13 -3 -23 -6 -16 -5 -16 -4 1 10 15 12 16 16
5 16 -8 0 -15 9 -15 19 0 11 4 17 8 15 13 -8 9 11 -4 25 -10 11 -10 13 0 7 6
-4 12 -3 12 1 0 5 -6 15 -12 22 -10 11 -10 13 0 7 15 -9 16 10 2 19 -8 5 -7
11 1 21 6 8 7 14 2 14 -5 0 -10 7 -10 15 0 10 6 14 16 10 11 -3 10 0 -3 10
-15 11 -16 15 -5 16 10 0 11 2 1 6 -10 4 -10 8 0 21 7 9 8 13 3 10 -7 -4 -11
3 -11 18 0 18 4 23 16 19 13 -4 13 -4 0 7 -19 17 -25 48 -8 48 8 0 9 3 3 8
-16 11 -13 46 5 54 24 10 24 9 6 -11z m1035 -10 c3 -1 5 -35 6 -76 0 -48 -3
-72 -10 -68 -6 4 -7 1 -1 -8 5 -8 9 -195 10 -415 l1 -402 -496 0 c-273 0 -490
2 -483 5 6 2 9 10 5 16 -12 20 -12 117 1 117 8 0 8 2 0 8 -14 9 -14 194 1 204
6 5 6 8 -2 8 -14 0 -13 42 2 52 7 5 7 8 0 8 -12 0 -14 115 -3 126 4 4 3 14 -2
24 -10 19 -9 38 4 59 6 9 5 12 0 8 -6 -3 -10 26 -10 74 1 43 4 79 9 79 4 0 3
9 -3 19 -7 14 -7 22 0 26 6 4 7 12 3 18 -11 17 -10 41 2 49 6 5 6 8 -1 8 -6 0
-9 12 -6 29 3 23 10 31 31 33 23 3 927 2 942 -1z"/>
<path d="M390 1187 c0 -4 -4 -6 -9 -2 -12 7 -25 -31 -16 -45 3 -5 1 -10 -5
-10 -6 0 -8 -5 -3 -12 12 -20 10 -298 -2 -298 -7 0 -7 -3 0 -8 12 -8 14 -350
3 -367 -4 -6 -3 -17 2 -25 5 -8 5 -19 0 -25 -5 -6 -3 -17 3 -26 15 -20 57 -31
57 -16 0 7 5 5 10 -3 8 -12 11 -13 19 -1 7 11 9 11 14 0 3 -9 6 -9 6 -2 1 8
10 9 31 3 16 -5 30 -5 30 0 0 4 16 4 35 0 24 -5 35 -4 35 4 0 6 5 4 10 -4 8
-12 11 -13 19 -1 7 11 9 11 14 0 3 -8 6 -9 6 -3 1 8 12 9 36 4 24 -5 35 -4 35
4 0 6 5 4 10 -4 8 -12 10 -12 10 -1 0 11 3 11 15 1 9 -7 15 -8 15 -2 0 6 13 7
35 2 23 -5 36 -4 39 4 3 7 5 7 5 -1 1 -7 6 -13 12 -13 5 0 7 6 3 13 -5 8 -2 8
9 -2 9 -7 17 -9 17 -3 0 6 13 7 35 2 24 -5 35 -4 35 4 0 6 5 4 10 -4 9 -13 10
-13 10 0 0 9 3 11 8 5 4 -5 21 -10 37 -10 17 0 33 5 37 10 5 6 8 5 8 -3 0 -7
5 -10 10 -7 13 8 9 36 -8 53 -7 8 -10 18 -7 23 4 5 3 9 -2 9 -10 0 -33 48 -33
69 0 14 -1 14 -10 1 -8 -12 -10 -11 -10 7 0 12 -4 25 -10 28 -18 11 -11 55 13
79 39 41 57 66 57 79 0 7 5 18 12 25 7 7 8 12 4 12 -5 0 -3 7 4 15 6 8 12 34
12 59 1 26 5 43 11 39 5 -3 5 2 0 13 -5 11 -10 34 -11 52 -4 63 -96 212 -132
212 -6 0 -8 5 -5 10 3 6 -3 10 -14 10 -12 0 -21 4 -21 9 0 5 -10 11 -22 14
-13 3 -49 12 -80 20 -32 8 -59 12 -61 10 -9 -9 -47 -11 -42 -2 4 5 1 9 -4 9
-6 0 -11 -5 -11 -11 0 -5 -4 -8 -8 -5 -16 10 -62 15 -57 6 6 -9 -14 -8 -31 3
-6 3 -14 3 -18 0 -10 -11 -37 -12 -30 -2 3 5 0 9 -5 9 -6 0 -11 -4 -11 -8 0
-9 -47 -9 -56 0 -3 4 -19 2 -35 -2 -16 -5 -29 -5 -29 -1 0 3 -9 7 -20 7 -11 0
-20 -4 -20 -9z"/>
<path d="M1490 1191 c-8 -6 -17 -8 -21 -5 -4 2 -7 -86 -8 -196 0 -134 3 -200
10 -200 5 0 8 -4 5 -8 -2 -4 4 -9 15 -9 12 -1 17 3 13 9 -5 7 -2 8 7 3 7 -5
37 -10 66 -10 30 -1 56 -5 60 -9 11 -11 12 -36 2 -36 -6 0 -6 -7 -2 -17 11
-23 10 -74 -1 -92 -7 -11 -6 -12 5 -6 12 8 12 6 0 -8 -7 -9 -9 -17 -4 -17 13
0 11 -43 -2 -52 -6 -5 -5 -8 3 -8 14 0 12 -31 -3 -42 -7 -5 -6 -11 0 -15 6 -5
10 -32 10 -61 -1 -52 15 -86 30 -61 6 8 10 7 16 -2 8 -12 11 -11 19 1 8 12 10
12 10 1 0 -11 3 -11 15 -1 10 9 15 9 15 1 0 -6 5 -11 11 -11 5 0 7 6 3 13 -5
8 -2 8 9 -2 14 -11 17 -11 17 0 0 10 3 10 12 1 16 -16 31 -15 22 1 -6 9 -5 9
7 0 12 -10 18 -10 27 -1 9 9 12 9 12 0 0 -7 5 -12 11 -12 5 0 7 6 3 13 -6 9
-4 9 8 -1 13 -10 17 -10 22 0 5 10 7 10 12 1 4 -10 11 -10 26 -2 15 8 19 8 14
0 -9 -13 4 -14 24 -1 8 5 17 5 20 1 10 -17 50 8 51 31 0 13 0 105 0 206 0 176
1 182 20 182 13 0 18 4 13 12 -5 7 -3 8 7 2 20 -13 102 -12 115 1 8 7 11 73
11 200 0 210 -3 220 -59 204 -16 -4 -30 -4 -34 2 -3 5 -11 6 -17 2 -17 -10
-38 -13 -32 -4 2 4 -2 8 -10 8 -8 0 -12 -4 -9 -9 3 -4 -7 -3 -21 2 -32 12 -38
12 -31 2 3 -5 -1 -9 -9 -9 -8 0 -12 3 -11 6 2 3 -29 6 -70 6 -41 0 -74 -4 -74
-8 0 -5 -4 -6 -9 -2 -17 10 -71 13 -71 3 0 -5 -5 -6 -11 -2 -16 10 -100 11
-106 1 -2 -4 -9 -4 -15 -1 -14 9 -108 12 -103 4 2 -4 -2 -7 -10 -7 -8 0 -12 4
-9 9 7 11 -7 10 -26 -1z"/>
<path d="M741 1314 c0 -11 3 -14 6 -6 3 7 2 16 -1 19 -3 4 -6 -2 -5 -13z"/>
<path d="M761 1314 c0 -11 3 -14 6 -6 3 7 2 16 -1 19 -3 4 -6 -2 -5 -13z"/>
</g>
</svg>
